<?xml version="1.0" encoding="utf-8"?>
<!-- Generator: Adobe Illustrator 24.1.0, SVG Export Plug-In . SVG Version: 6.00 Build 0)  -->
<svg version="1.1" id="Calque_1" xmlns:serif="http://www.serif.com/"
	 xmlns="http://www.w3.org/2000/svg" xmlns:xlink="http://www.w3.org/1999/xlink" x="0px" y="0px" viewBox="0 0 1190.6 841.9"
	 style="enable-background:new 0 0 1190.6 841.9;" xml:space="preserve">
<style type="text/css">
	.st0{fill-rule:evenodd;clip-rule:evenodd;}
</style>
<path class="st0" d="M681.1,460.4l5.7,234.7c0.1,4.3-1.5,8.4-4.6,11.4c-3,3-7.1,4.7-11.4,4.6l-65.3-1.4c-8.6-0.2-15.5-7.3-15.3-15.9
	l11.2-634.3c0.2-8.5,7.1-15.4,15.6-15.4h38.5c8.5,0,15.4,6.8,15.7,15.3l4.1,169.5c25.7-10.7,57-13,92,1
	c76.8,30.7,94.7,128.1,46,185.8c-8.4,10-17.4,18-26.8,24.2c6.2,6.8,11.9,14.3,17.1,22.4c38.7,60.7,59.3,128,91.7,208.6
	c14.2,35.4,28.7,53.9,44.6,60.4c10.1,4.1,19.6,1.2,26.1-2.2c12.5-6.5,19-21.5,15.2-36.1c-4.9-18.2-21.7-22.4-21.7-22.4
	c-8.3-1.9-13.6-10.2-11.8-18.5l8.6-39.7c1.8-8.4,10.1-13.8,18.5-12c0,0,59.3,12.2,75.9,74c12.8,47.9-10.4,98.9-51.4,120.2
	c-21.7,11.3-53.1,18.6-86.5,5c-27.6-11.3-64.7-38.6-89.5-100.1c-30.5-75.9-49.2-135.2-85.6-192.4C723,483.8,701.3,469.4,681.1,460.4
	z M335.6,130.8c-4.8,22.8-11.3,67.3-11.9,93.8c0,25.5,0.6,39.9,9,63.7c4.6,12.7,17.2,19.6,29.1,20.1c11.7,0.5,27.6-4.7,39-15.9
	c15.9-15.7,28.4-40.5,36.1-65.1c16.9-54.1,33.3-142.7,33.3-142.7c1.4-7.4,7.8-12.7,15.3-12.8l32.5-0.2c4.2,0,8.2,1.6,11.1,4.5
	c3,2.9,4.6,6.9,4.6,11.1l0.4,607.9c0,4.2-1.7,8.2-4.6,11.1c-3,2.9-7,4.6-11.1,4.5l-68.3-0.5c-4.3,0-8.4-1.8-11.3-5
	c-2.9-3.1-4.4-7.3-4.2-11.6L455.3,348c-27.6,31-62.6,46.5-96.5,45.1c-35.8-1.5-64.5-19.8-81-48L156.6,794.3
	c-1.1,4.1-3.8,7.5-7.5,9.6s-8,2.6-12,1.4L74.9,787c-4-1.2-7.4-4-9.4-7.7c-2-3.7-2.4-8.1-1.1-12.1L278,98
	c2.5-7.9,10.9-12.5,18.9-10.4l31.8,8.4c4,1.1,7.4,3.7,9.5,7.3c2.1,3.6,2.6,7.9,1.6,11.9L335.6,130.8z M930.5,317.2
	c-52.9,14.2-84.4,68.7-70.2,121.6S929,523.2,981.9,509c52.9-14.2,84.4-68.7,70.2-121.6C1037.9,334.5,983.4,303,930.5,317.2z
	 M946.5,380.2c17.8-4.8,33.9,6.3,38.7,24.1c4.8,18-3.4,36.9-21.4,41.7c-17.6,4.7-31.7-6.5-36.4-24.1
	C922.6,404.1,928.6,385,946.5,380.2z M679.1,377.1l5.2,1.6l0,0l1.7,0.5h-0.1c16.3,5,46.3,13.5,66.1-9.9c19-22.5,12.3-60.7-17.7-72.7
	c-25.9-10.3-47.8,4.9-56.6,21.4L679.1,377.1z"/>
</svg>
